<?xml version="1.0" encoding="UTF-8"?>
<svg width="274px" height="65px" viewBox="0 0 274 65" version="1.1" xmlns="http://www.w3.org/2000/svg" xmlns:xlink="http://www.w3.org/1999/xlink">
    <!-- Generator: Sketch 52.5 (67469) - http://www.bohemiancoding.com/sketch -->
    <title>DITP</title>
    <desc>Created with Sketch.</desc>
    <g id="Page-1" stroke="none" stroke-width="1" fill="none" fill-rule="evenodd">
        <g id="DITP" fill="#FFFFFF">
            <path d="M17.287,19.148 C18.069,19.148 19.245,19.125 20.803,19.064 C22.352,18.995 23.536,18.972 24.315,18.972 C27.536,18.972 29.982,19.041 31.669,19.165 C35.46,19.479 38.464,20.095 40.694,21.054 C42.924,22 44.74,23.474 46.129,25.471 C48.264,28.54 49.334,32.079 49.334,36.122 C49.334,37.762 49.205,39.303 48.937,40.77 C47.553,48.309 43.793,54.437 37.646,59.165 C32.66,63.022 26.561,64.937 19.352,64.937 C14.515,64.937 10.909,64.906 8.498,64.838 C8.16,64.779 7.609,64.748 6.835,64.748 C5.537,64.748 3.583,64.81 0.952,64.936 C2.918,56.196 4.483,48.38 5.675,41.469 C6.032,39.585 6.461,37.326 6.965,34.672 C7.055,34.125 7.504,30.852 8.302,24.862 C8.404,23.924 8.656,21.964 9.03,18.971 C12.725,19.101 15.482,19.148 17.287,19.148 M17.067,60.993 C20.37,60.993 23.139,60.58 25.36,59.755 C27.649,58.89 29.816,57.285 31.872,54.911 C35.042,51.272 37.099,46.515 38.066,40.644 C38.353,38.91 38.491,37.508 38.491,36.424 C38.491,32.612 37.697,29.577 36.116,27.328 C33.989,24.294 29.981,22.78 24.091,22.78 C24.484,22.78 22.864,22.89 19.222,23.087 C17.547,30.988 15.443,42.184 12.902,56.663 C12.832,57.049 12.725,57.654 12.599,58.48 L12.19,60.895 C13.299,60.965 14.931,60.993 17.067,60.993" id="Shape" fill-rule="nonzero"></path>
            <path d="M70.349,27.975 C69.704,30.879 68.776,35.252 67.604,41.084 C67.336,42.613 66.951,45.138 66.459,48.674 L65.531,55.028 C65.299,57.228 64.878,60.528 64.284,64.928 C60.855,64.74 59.14,64.637 59.14,64.637 C57.028,64.637 54.999,64.74 53.029,64.928 C54.826,58.124 56.58,49.898 58.299,40.245 C58.402,39.58 58.617,38.379 58.904,36.633 C59.046,35.895 59.246,34.659 59.529,32.903 C59.726,31.877 60.001,30.262 60.371,28.058 C60.843,24.749 61.177,21.721 61.393,18.966 C64.008,19.231 65.836,19.373 66.875,19.373 C67.89,19.373 69.71,19.231 72.353,18.966 C71.344,23.221 70.66,26.215 70.349,27.975" id="Path"></path>
            <path d="M100.354,28.858 C100.09,30.256 99.713,32.205 99.229,34.713 C98.741,37.138 98.045,40.765 97.152,45.614 L96.35,50.555 C96.083,52.174 95.871,53.373 95.713,54.176 C95.414,56.578 94.891,60.158 94.16,64.929 C91.199,64.733 89.398,64.638 88.808,64.638 C88.226,64.638 87.298,64.685 86.028,64.772 L83.24,64.929 C83.452,63.864 83.802,62.325 84.302,60.3 C84.518,59.384 84.849,57.756 85.309,55.432 L89.733,32.612 C90.11,30.553 90.563,27.717 91.082,24.054 C88.99,24.054 87.008,24.117 85.112,24.255 C83.637,24.359 81.435,24.582 78.49,24.951 C79.135,23.571 79.508,21.871 79.626,19.797 C79.626,19.601 79.591,19.325 79.52,18.967 C80.912,19.044 82.587,19.116 84.573,19.164 C90.59,19.343 94.66,19.425 96.78,19.425 L103.701,19.425 C104.857,19.425 106.584,19.362 108.911,19.205 C111.239,19.044 112.977,18.967 114.138,18.967 C113.757,20.158 113.505,21.057 113.403,21.661 C113.21,22.929 113.096,24.036 113.096,24.951 C109.207,24.359 105.302,24.054 101.408,24.054" id="Path"></path>
            <path d="M126.517,19.148 C127.465,19.148 128.872,19.125 130.76,19.064 C132.644,18.995 134.056,18.968 134.999,18.968 C138.444,18.968 140.847,19.117 142.208,19.39 C147.183,20.429 149.645,23.474 149.645,28.474 C149.645,29.087 149.589,29.791 149.444,30.536 C148.728,34.683 146.931,37.978 144.072,40.446 C141.631,42.564 138.268,43.973 133.966,44.687 C132.181,44.738 129.51,44.876 125.991,45.118 C125.704,46.925 125.224,50.026 124.552,54.399 C123.97,58.287 123.486,61.802 123.128,64.928 C119.388,64.747 117.556,64.637 117.622,64.637 C117.056,64.637 116.116,64.684 114.842,64.771 L112.034,64.928 C112.227,64.169 112.513,63.001 112.872,61.436 C113.328,59.663 113.918,57.22 114.653,54.09 C114.913,52.438 115.499,49.019 116.387,43.85 C116.627,42.552 116.945,40.668 117.35,38.199 L118.459,31.547 C118.844,29.111 119.159,27.225 119.399,25.898 C119.82,23.389 120.13,21.077 120.316,18.967 C121.696,19.101 123.769,19.148 126.517,19.148 Z M128.625,30.852 C128.409,31.902 128.055,33.803 127.575,36.55 C127.398,37.615 127.079,39.218 126.623,41.373 C128.896,41.224 130.406,41.066 131.165,40.877 C135.148,39.862 137.591,36.835 138.507,31.769 C138.72,30.636 138.81,29.671 138.81,28.865 C138.81,26.81 138.162,25.173 136.844,23.924 C136.045,23.174 133.851,22.789 130.261,22.789 L128.625,30.852 Z" id="Shape" fill-rule="nonzero"></path>
            <path d="M158.033,56.325 C157.513,57.363 164.455,50.937 193.426,42.457 C204.898,39.103 211.669,38.004 223.546,36.751 L235.449,23.276 C214.198,25.858 204.122,28.563 185.325,36.348 C176.629,39.952 161.93,48.782 158.033,56.325" id="Path"></path>
            <path d="M158.733,50.402 C154.415,54.203 151.713,58.858 154.163,61.504 C159.575,67.348 227.809,62.239 257.59,62.066 L273.269,47.385 C241.167,51.713 239.834,51.789 218.367,53.78 C193.919,56.035 159.025,61.504 155.56,57.866 C154.348,56.596 157.144,52.782 158.733,50.402" id="Path"></path>
            <path d="M162.138,46.218 C173.484,37.311 180.66,33.02 193.842,27.191 C205.176,22.218 211.963,20.031 224.095,17.566 L238.697,0.227 C222.44,4.193 210.06,8.179 194.244,18.11 C180.141,26.945 172.776,33.404 162.138,46.218" id="Path"></path>
        </g>
    </g>
</svg>