<svg height="68" viewBox="0 0 366 68" width="366" xmlns="http://www.w3.org/2000/svg"><g fill="none"><g fill="#023f88"><path d="m104.554562 26.3649772v20.9276456h-6.5873924v-20.9276456h-6.5873924v-5.8703797h19.7613168v5.8703797z"/><path d="m128.567084 47.2925367v-10.6148861h-7.001418v10.6148861h-6.586532v-26.7980253h6.586532v10.311038h7.001418v-10.311038h6.58567v26.7980253z"/><path d="m167.407392 47.2927089h6.586532v-26.7980254h-6.586532z"/><path d="m189.275073 24.1449924v23.1475443h-4.065367v-23.1475443h-7.376709v-3.650481h18.818785v3.650481z"/><path d="m210.578871 24.1449924h-6.021874v8.3932658h6.021874c2.709671 0 4.555139-1.5433417 4.555139-4.1781266 0-2.6356455-1.845468-4.2151392-4.555139-4.2151392zm4.704911 23.1475443-5.646582-11.291443h-5.080203v11.291443h-4.064506v-26.7980253h10.387646c5.081063 0 8.318379 3.2743291 8.318379 7.8286076 0 3.8389873-2.334379 6.2852658-5.345316 7.115038l6.172506 11.8543797z"/><path d="m233.040132 26.5540861-4.179848 11.8931139h8.243493zm7.036709 20.7382785-1.845469-5.3831899h-10.575291l-1.842886 5.3831899h-4.331342l9.823848-26.7980254h3.27519l9.824709 26.7980254z"/><path d="m261.154344 25.9505215c-1.128455-1.2403544-2.633063-1.8058734-4.555139-1.8058734h-4.928709v19.4962025h4.928709c1.922076 0 3.426684-.5637974 4.555139-1.8058734 1.394431-1.5433418 1.431443-4.441519 1.431443-8.1315949 0-3.6866329-.037012-6.2077975-1.431443-7.7528608m2.786279 18.8205063c-1.692253 1.693114-4.140253 2.5211646-6.925671 2.5211646h-9.408101v-26.7971646h9.408101c2.785418 0 5.233418.8271899 6.925671 2.5211646 2.898177 2.8981772 2.709671 6.8120506 2.709671 10.6871899 0 3.879443.188506 8.1703291-2.709671 11.0676455"/><path d="m270.487387 47.2925367v-26.7980253h17.125671v3.650481h-13.059443v7.8303291h11.139089v3.6108861h-11.139089v8.0541266h13.059443v3.6522025z"/><path d="m291.443696 47.2927089h3.537722v-3.5385823h-3.537722z"/><path d="m306.762805 47.5183139c-2.634785 0-5.044051-.9795443-6.850785-2.7854177-2.522025-2.5220253-2.522025-5.1568101-2.522025-10.8412658s0-8.3183798 2.522025-10.8412658c1.806734-1.8058735 4.216-2.7854178 6.850785-2.7854178 4.818532 0 8.394127 2.9369114 9.297924 7.9801013h-2.93519c-.716152-3.2743291-3.011797-5.4202025-6.362734-5.4202025-1.769721 0-3.462835.6774177-4.629164 1.882481-1.693975 1.7309873-1.882482 3.5755949-1.882482 9.1843038 0 5.6087088.188507 7.4533164 1.882482 9.1843038 1.166329 1.2050633 2.859443 1.882481 4.629164 1.882481 3.350937 0 5.720608-2.1458734 6.43762-5.4202025h2.860304c-.865063 5.0431898-4.516405 7.9801012-9.297924 7.9801012"/><path d="m334.037347 24.7446835c-1.166329-1.2050632-2.860304-1.9194936-4.630025-1.9194936-1.770583 0-3.462836.7144304-4.630026 1.9194936-1.693974 1.7309874-1.88162 3.5385823-1.88162 9.1472912 0 5.6087088.187646 7.415443 1.88162 9.1472911 1.16719 1.2033418 2.859443 1.9194937 4.630026 1.9194937 1.769721 0 3.463696-.7161519 4.630025-1.9194937 1.693975-1.7318481 1.883342-3.5385823 1.883342-9.1472911 0-5.6087089-.189367-7.4163038-1.883342-9.1472912m2.220759 19.9876962c-1.808455 1.8067342-4.178126 2.7862785-6.850784 2.7862785-2.671798 0-5.04319-.9795443-6.850785-2.7862785-2.523747-2.5211645-2.523747-5.1568101-2.523747-10.840405 0-5.6844557 0-8.3192405 2.523747-10.8412658 1.807595-1.8067342 4.178987-2.7854178 6.850785-2.7854178 2.672658 0 5.042329.9786836 6.850784 2.7854178 2.522026 2.5220253 2.522026 5.1568101 2.522026 10.8412658 0 5.6835949 0 8.3192405-2.522026 10.840405"/><path d="m363.132481 47.2921924v-20.3647089l-7.339696 16.1487089h-2.446279l-7.453316-16.1487089v20.3647089h-2.861165v-26.8014683h2.861165l8.731544 19.0098734 8.507747-19.0098734h2.861165v26.8014683z"/><path d="m151.449944 30.6565519-2.409266 7.1511899h4.667899zm5.231697 16.6358987-1.242076-3.9896202h-8.242633l-1.317823 3.9896202h-6.887798l9.748962-26.7980253h5.080203l9.748962 26.7980253z"/></g><path d="m39.0775342 5.77225316-3.3328608-5.77225316h-12.5946329l9.6293165 16.6789367z" fill="#ffd300"/><path d="m12.9046785 51.1071646-3.32855698 5.7670886 6.29731648 10.9092658 9.6241519-16.6763544z" fill="#f6931d"/><path d="m42.3966228.00043038-23.1974684 40.20435442h12.5946329l23.2000507-40.20435442z" fill="#f6931d"/><path d="m65.2626127 51.1071646h6.6054683l6.2981772-10.9023798h-19.200962z" fill="#d92128"/><path d="m45.3760557 16.6822076-6.2981772 10.9092658 23.2138228 40.1923038 6.2973164-10.9092658z" fill="#ffd300"/><path d="m48.7139949 44.2773823-9.6336202-4.0722532h-.0051646l-9.6387848 4.0722532 2.3576203-4.0722532h-31.79387345l6.29817722 10.9023798h46.36050633z" fill="#d92128"/></g></svg>